<?xml version="1.0" standalone="no"?>
<!DOCTYPE svg PUBLIC "-//W3C//DTD SVG 20010904//EN"
 "http://www.w3.org/TR/2001/REC-SVG-20010904/DTD/svg10.dtd">
<svg version="1.0" xmlns="http://www.w3.org/2000/svg"
 width="147.000000pt" height="147.000000pt" viewBox="0 0 147.000000 147.000000"
 preserveAspectRatio="xMidYMid meet">
<metadata>
Created by potrace 1.11, written by Peter Selinger 2001-2013
</metadata>
<g transform="translate(0.000000,147.000000) scale(0.100000,-0.100000)"
fill="#000000" stroke="none">
<path d="M665 1334 c-44 -8 -118 -28 -165 -45 -47 -16 -121 -40 -165 -53 -108
-31 -194 -68 -249 -105 -65 -45 -76 -112 -23 -145 12 -8 39 1 114 36 60 29
112 47 133 47 19 -1 62 12 95 27 57 27 67 28 205 29 163 0 213 -10 265 -56 44
-39 60 -87 45 -133 -18 -54 -47 -86 -80 -86 -18 0 -35 -9 -47 -24 -20 -25 -77
-46 -127 -46 -28 0 -28 1 -22 38 3 22 17 78 31 126 14 47 25 93 25 101 0 21
-32 35 -79 35 -65 0 -89 -17 -106 -72 -40 -137 -88 -385 -108 -568 l-13 -115
-28 -3 -29 -4 7 59 c13 113 55 339 82 438 39 147 40 156 18 172 -21 15 -91 17
-127 4 -30 -12 -40 -35 -77 -195 -40 -165 -78 -410 -86 -547 l-7 -107 27 -17
c47 -31 156 -3 156 40 0 9 42 14 148 18 155 6 232 21 315 63 27 13 78 31 115
39 199 46 310 161 300 311 -5 76 -35 121 -105 155 l-47 23 50 16 c76 26 126
55 167 97 61 61 72 87 72 185 0 80 -2 89 -30 130 -37 52 -108 102 -178 124
-74 24 -363 29 -472 8z m423 -161 c83 -39 107 -160 42 -218 -18 -16 -18 -15
-19 44 0 69 -17 109 -70 165 -33 35 -34 38 -11 31 14 -4 40 -14 58 -22z m-145
-474 c69 -36 99 -98 78 -162 -13 -40 -54 -85 -45 -49 8 30 -14 98 -43 132 -14
17 -44 40 -67 52 -36 19 -39 22 -21 29 30 11 73 10 98 -2z m-213 -97 c14 -10
33 -35 44 -56 16 -32 17 -44 8 -75 -21 -69 -32 -76 -117 -75 -42 1 -79 4 -82
8 -6 6 13 181 23 217 4 14 12 15 52 8 26 -5 58 -17 72 -27z"/>
</g>
</svg>
